<svg xmlns="http://www.w3.org/2000/svg" viewBox="0 0 512 512">
  <!-- Red wobbly circle background -->
  <path d="M256 28c120 0 228 90 228 228s-108 228-228 228S28 376 28 256 136 28 256 28z" fill="#ff4d4d"/>
  <!-- Pen icon (simplified PenLine from Lucide) -->
  <g transform="translate(128, 108) scale(16)" stroke="#ffffff" stroke-width="2.5" stroke-linecap="round" stroke-linejoin="round" fill="none">
    <!-- Pen body -->
    <path d="M12 20h9"/>
    <path d="M16.376 3.622a1 1 0 0 1 3.002 3.002L7.368 18.635a2 2 0 0 1-.855.506l-2.872.838a.5.5 0 0 1-.62-.62l.838-2.872a2 2 0 0 1 .506-.854z"/>
  </g>
</svg>
